<?xml version="1.0" encoding="utf-8"?>
<!-- Generator: Adobe Illustrator 27.5.0, SVG Export Plug-In . SVG Version: 6.00 Build 0)  -->
<svg version="1.1" id="Camada_1" xmlns="http://www.w3.org/2000/svg" xmlns:xlink="http://www.w3.org/1999/xlink" x="0px" y="0px"
	 viewBox="0 0 1300 1300" style="enable-background:new 0 0 1300 1300;" xml:space="preserve">
<g>
	<linearGradient id="SVGID_1_" gradientUnits="userSpaceOnUse" x1="764.978" y1="644.496" x2="574.8748" y2="315.2276">
		<stop  offset="0" style="stop-color:#0F8FCF"/>
		<stop  offset="1" style="stop-color:#20376B"/>
	</linearGradient>
	<path style="fill:url(#SVGID_1_);" d="M631.629,684.538c0,0,145.368-37.109,118.882-125.57
		c-22.997-76.812-117.574-72.438-171.43-107.628c-38.967-25.462-66.448-47.846-59.101-76.352
		c11.38-44.155,92.103-88.766,167.535-101.645c0,0-71.752,40.475-7.359,80.951c64.393,40.475,200.538,117.747,147.184,222.615
		C773.985,681.778,631.629,684.538,631.629,684.538z"/>
	
		<linearGradient id="SVGID_00000062189148754876446810000006246478205093612986_" gradientUnits="userSpaceOnUse" x1="460.5325" y1="548.2459" x2="716.051" y2="548.2459">
		<stop  offset="0" style="stop-color:#FFCB05"/>
		<stop  offset="1" style="stop-color:#F37021"/>
	</linearGradient>
	<path style="fill:url(#SVGID_00000062189148754876446810000006246478205093612986_);" d="M715.518,579.397
		c2.816,19.455-5.782,39.485-19.786,53.281c-14.004,13.796-32.836,21.881-52.071,25.934
		c-56.924,11.995-119.841-12.05-154.257-58.952c-34.416-46.902-38.477-114.134-9.957-164.837
		c-4.347,29.393-3.724,60.569,9.223,87.313c12.947,26.744,40.321,47.908,70.015,46.85c39.485-1.407,72.706-39.577,111.851-34.222
		C692.992,537.835,712.272,556.966,715.518,579.397z"/>
	
		<linearGradient id="SVGID_00000023264100620841935050000004438914219645194896_" gradientUnits="userSpaceOnUse" x1="708.5952" y1="290.7699" x2="792.4267" y2="290.7699">
		<stop  offset="0" style="stop-color:#20376B"/>
		<stop  offset="0.2469" style="stop-color:#1F3667"/>
		<stop  offset="0.4909" style="stop-color:#1B325B"/>
		<stop  offset="0.7337" style="stop-color:#152D47"/>
		<stop  offset="0.9746" style="stop-color:#0D252C"/>
		<stop  offset="1" style="stop-color:#0C2428"/>
	</linearGradient>
	<path style="fill:url(#SVGID_00000023264100620841935050000004438914219645194896_);" d="M710.444,309.489
		c-4.015-10.972-1.479-23.747,7.488-31.237c0.767-0.64,1.578-1.244,2.436-1.796c16.505-10.623,54.272-3.332,72.059-20.544
		c0,0-18.398,62.553-52.434,68.992C721.87,328.333,713.918,318.982,710.444,309.489z"/>
	
		<linearGradient id="SVGID_00000174580612809609216750000007412202007576193415_" gradientUnits="userSpaceOnUse" x1="463.5584" y1="584.0038" x2="591.8794" y2="584.0038">
		<stop  offset="0" style="stop-color:#FFD400"/>
		<stop  offset="1" style="stop-color:#FFD400;stop-opacity:0"/>
	</linearGradient>
	<path style="fill:url(#SVGID_00000174580612809609216750000007412202007576193415_);" d="M463.558,512.973
		c0,0,37.629,91.99,98.342,101.189c60.713,9.199,10.424,40.873,10.424,40.873S477.444,627.04,463.558,512.973z"/>
	
		<linearGradient id="SVGID_00000017482767335787563120000010536263944153459339_" gradientUnits="userSpaceOnUse" x1="670.0101" y1="604.0428" x2="670.0101" y2="387.8669">
		<stop  offset="0" style="stop-color:#0F8FCF"/>
		<stop  offset="0" style="stop-color:#0F8FCF"/>
		<stop  offset="1" style="stop-color:#0F8FCF;stop-opacity:0"/>
	</linearGradient>
	<path style="fill:url(#SVGID_00000017482767335787563120000010536263944153459339_);" d="M686.822,387.867c0,0-78.191,0-144.424,0
		c0,0,31.436,60.009,123.266,73.592c131.274,19.417,109.468,142.584,109.468,142.584s64.335-103.948-24.622-159.142
		C672.933,396.767,686.822,387.867,686.822,387.867z"/>
	
		<linearGradient id="SVGID_00000127762749092964158360000002053220751932728739_" gradientUnits="userSpaceOnUse" x1="742.3271" y1="308.6079" x2="742.3271" y2="273.3439">
		<stop  offset="0" style="stop-color:#0F8FCF"/>
		<stop  offset="1" style="stop-color:#20376B"/>
	</linearGradient>
	<path style="fill:url(#SVGID_00000127762749092964158360000002053220751932728739_);" d="M716.051,300.477
		c0,0-2.552-19.318,19.526-18.398c22.077,0.92,33.116-8.735,33.116-8.735S719.522,328.993,716.051,300.477z"/>
</g>
<g>
	<path style="fill:#002B64;" d="M306.842,777.63c-0.33,1.975-0.493,3.745-0.493,5.306c0,6.831,1.234,12.466,3.703,16.909
		c4.36,7.898,11.725,11.847,22.091,11.847h38.506v18.883l-38.876,0.124c-17.362,0-30.443-5.307-39.247-15.921
		c-6.5-7.816-9.75-18.06-9.75-30.73v-2.099c0-1.398,0.349-3.907,1.048-7.529c0.698-3.62,1.747-7.115,3.148-10.491
		c2.715-6.828,7.239-12.421,13.576-16.784c8.227-5.677,18.636-8.516,31.225-8.516l38.876,0.123v18.883h-38.506
		c-2.962,0-5.843,0.412-8.639,1.234c-6.007,1.646-10.49,5.183-13.452,10.614C308.323,772.528,307.253,775.243,306.842,777.63z"/>
	<path style="fill:#002B64;" d="M432.356,734.434c14.891,0,26.985,4.491,36.284,13.47c9.05,8.734,13.576,20.308,13.576,34.725
		c0,14.417-4.526,25.95-13.576,34.6c-9.38,8.981-21.474,13.47-36.284,13.47c-14.81,0-26.864-4.49-36.161-13.47
		c-9.052-8.65-13.576-20.183-13.576-34.6c0-14.417,4.585-26.053,13.761-34.91C405.553,738.863,417.546,734.434,432.356,734.434z
		 M432.356,755.784c-9.957,0-17.485,3.629-22.585,10.886c-3.292,4.618-4.937,9.937-4.937,15.958c0,6.02,1.706,11.424,5.122,16.205
		c3.413,4.783,7.96,7.916,13.638,9.402c2.879,0.825,5.801,1.236,8.763,1.236c10.037,0,17.606-3.628,22.708-10.886
		c3.29-4.7,4.937-10.018,4.937-15.957c0-6.102-1.708-11.524-5.121-16.267c-3.415-4.741-8.003-7.896-13.761-9.464
		C438.32,756.157,435.399,755.784,432.356,755.784z"/>
	<path style="fill:#002B64;" d="M494.187,830.698l9.752-91.945h23.325l18.267,44.924l18.387-44.924h23.201l9.872,91.945h-22.963
		l-5.452-50.78l-19.209,41.031h-7.51l-19.332-40.94l-5.501,50.689H494.187z"/>
	<path style="fill:#002B64;" d="M632.537,797.623v33.076h-23.573V738.63h49.367c7.075,0,12.875,1.03,17.402,3.086
		c8.556,3.869,13.739,10.449,15.55,19.746c0.574,2.798,0.863,5.597,0.863,8.392c0,7.405-2.012,13.453-6.035,18.143
		c-4.023,4.69-9.73,7.651-17.118,8.886c-3.286,0.493-6.652,0.74-10.1,0.74H632.537z M632.537,777.63h24.883
		c7.436,0,11.155-3.002,11.155-9.01c0-5.018-2.33-8.021-6.987-9.01c-1.391-0.246-2.78-0.369-4.168-0.369h-24.883V777.63z"/>
	<path style="fill:#002B64;" d="M734.972,739.74h35.049l30.855,90.958h-23.068l-6.089-18.512h-38.646l-5.89,18.512h-23.065
		L734.972,739.74z M750.755,758.126l-10.834,32.71h24.756l-10.445-32.71H750.755z"/>
	<path style="fill:#002B64;" d="M813.34,738.753h27.028l42.209,57.883v-57.883h22.955v91.945h-25.765l-43.596-61.67v61.67H813.34
		V738.753z"/>
	<path style="fill:#002B64;" d="M917.503,738.63h29.374l20.486,34.557l20.611-34.557h29.25l-38.013,55.736v36.333h-23.573v-36.333
		L917.503,738.63z"/>
</g>
<g>
	<path style="fill:#6D6E71;" d="M421.832,861.023h-19.298v-5.994h45.164v5.994h-19.297v51.487h-6.569V861.023z"/>
	<path style="fill:#6D6E71;" d="M445.154,900.193v-0.164c0-9.115,7.391-13.878,18.148-13.878c5.42,0,9.197,0.738,12.974,1.807
		v-1.314c0-7.555-4.598-11.496-12.563-11.496c-5.009,0-8.951,1.231-12.892,3.038l-1.889-5.174c4.681-2.134,9.197-3.612,15.438-3.612
		c5.994,0,10.675,1.642,13.713,4.681c2.956,2.956,4.435,7.061,4.435,12.482v25.948h-6.242v-6.323
		c-2.956,3.777-7.8,7.226-15.273,7.226C453.038,913.414,445.154,908.897,445.154,900.193z M476.359,896.908v-3.941
		c-3.12-0.904-7.226-1.807-12.4-1.807c-7.883,0-12.4,3.45-12.4,8.54v0.165c0,5.337,4.927,8.457,10.675,8.457
		C470.036,908.323,476.359,903.642,476.359,896.908z"/>
	<path style="fill:#6D6E71;" d="M495.412,919.901l2.874-4.927c4.845,3.532,10.264,5.421,16.341,5.421
		c9.362,0,15.437-5.174,15.437-15.11v-5.01c-3.694,4.928-8.868,8.951-16.669,8.951c-10.183,0-19.955-7.637-19.955-19.871v-0.165
		c0-12.4,9.854-20.036,19.955-20.036c7.965,0,13.139,3.941,16.587,8.54v-7.637h6.323v35.065c0,6.568-1.971,11.578-5.419,15.027
		c-3.777,3.778-9.444,5.666-16.177,5.666C507.647,925.814,501.077,923.844,495.412,919.901z M530.23,889.271v-0.164
		c0-8.704-7.555-14.37-15.603-14.37c-8.048,0-14.699,5.584-14.699,14.288v0.164c0,8.54,6.816,14.452,14.699,14.452
		C522.675,903.642,530.23,897.812,530.23,889.271z"/>
	<path style="fill:#6D6E71;" d="M551.006,852.567h6.323v59.944h-6.323V852.567z"/>
	<path style="fill:#6D6E71;" d="M572.191,853.797h7.226v6.98h-7.226V853.797z M572.602,870.057h6.323v42.454h-6.323V870.057z"/>
	<path style="fill:#6D6E71;" d="M593.624,870.057h6.323v7.391c2.792-4.599,7.226-8.295,14.534-8.295
		c10.265,0,16.259,6.899,16.259,16.999v26.359h-6.323v-24.799c0-7.882-4.27-12.81-11.742-12.81c-7.31,0-12.729,5.337-12.729,13.303
		v24.307h-6.323V870.057z"/>
	<path style="fill:#6D6E71;" d="M662.932,907.995c5.83,0,9.936-2.381,13.385-5.995l3.941,3.53c-4.27,4.763-9.444,7.966-17.49,7.966
		c-11.661,0-21.187-8.951-21.187-22.171c0-12.318,8.622-22.172,20.365-22.172c12.563,0,19.789,10.018,19.789,22.5
		c0,0.576,0,1.232-0.082,2.218h-33.667C648.891,902.822,655.459,907.995,662.932,907.995z M675.332,888.779
		c-0.74-7.719-5.174-14.289-13.549-14.289c-7.309,0-12.892,6.077-13.796,14.289H675.332z"/>
	<path style="fill:#6D6E71;" d="M718.528,855.03h6.488v25.537h33.174V855.03h6.488v57.481h-6.488v-25.867h-33.174v25.867h-6.488
		V855.03z"/>
	<path style="fill:#6D6E71;" d="M798.594,907.995c5.83,0,9.936-2.381,13.385-5.995l3.941,3.53c-4.27,4.763-9.444,7.966-17.49,7.966
		c-11.662,0-21.187-8.951-21.187-22.171c0-12.318,8.622-22.172,20.365-22.172c12.564,0,19.79,10.018,19.79,22.5
		c0,0.576,0,1.232-0.082,2.218h-33.667C784.552,902.822,791.12,907.995,798.594,907.995z M810.993,888.779
		c-0.74-7.719-5.174-14.289-13.549-14.289c-7.309,0-12.892,6.077-13.796,14.289H810.993z"/>
	<path style="fill:#6D6E71;" d="M828.486,870.057h6.323v11.085c3.121-7.061,9.278-12.153,17.326-11.824v6.815h-0.493
		c-9.279,0-16.833,6.651-16.833,19.462v16.915h-6.323V870.057z"/>
	<path style="fill:#6D6E71;" d="M878.661,907.995c5.83,0,9.936-2.381,13.385-5.995l3.941,3.53c-4.27,4.763-9.444,7.966-17.49,7.966
		c-11.661,0-21.187-8.951-21.187-22.171c0-12.318,8.622-22.172,20.365-22.172c12.563,0,19.79,10.018,19.79,22.5
		c0,0.576,0,1.232-0.082,2.218h-33.667C864.62,902.822,871.188,907.995,878.661,907.995z M891.061,888.779
		c-0.74-7.719-5.174-14.289-13.549-14.289c-7.31,0-12.893,6.077-13.796,14.289H891.061z"/>
</g>
</svg>
